<svg xmlns="http://www.w3.org/2000/svg" viewBox="0 0 100.71 112.82"><defs><style>.cls-1{fill:#86c3d0;}.cls-2{fill:#fff;}.cls-3{font-size:12px;fill:#1d1d1b;font-family:MyriadPro-Regular, Myriad Pro;}.cls-4{letter-spacing:-0.01em;}.cls-5{letter-spacing:-0.01em;}.cls-6{letter-spacing:-0.01em;}.cls-7{letter-spacing:0em;}.cls-8{letter-spacing:0em;}.cls-9{letter-spacing:0em;}.cls-10{letter-spacing:0.03em;}.cls-11{letter-spacing:-0.01em;}.cls-12{letter-spacing:-0.01em;}.cls-13{letter-spacing:-0.01em;}</style></defs><g id="API"><path class="cls-1" d="M50.35,13.37a43,43,0,1,0,43.05,43A43,43,0,0,0,50.35,13.37Z"/><path class="cls-2" d="M62.55,78.16h-1a.84.84,0,0,1-.84-.83V35.49a.85.85,0,0,1,.84-.84h1a5,5,0,0,1,5,5V73.14A5,5,0,0,1,62.55,78.16Zm-.14-1.67h.14a3.35,3.35,0,0,0,3.34-3.35V39.67a3.35,3.35,0,0,0-3.34-3.34h-.14Z"/><path class="cls-2" d="M61.57,78.16H34a.84.84,0,0,1-.84-.83V35.49a.85.85,0,0,1,.84-.84H61.57a.85.85,0,0,1,.84.84V77.33A.84.84,0,0,1,61.57,78.16ZM34.82,76.49H60.73V36.33H34.82Z"/><path class="cls-2" d="M48.05,45.47a.88.88,0,0,1-.44-.12l-4.13-2.5-4.14,2.5a.86.86,0,0,1-.85,0,.84.84,0,0,1-.42-.73V35.49a.84.84,0,0,1,.84-.84h9.14a.84.84,0,0,1,.83.84v9.14a.84.84,0,0,1-.42.73A.87.87,0,0,1,48.05,45.47ZM43.48,41a.82.82,0,0,1,.43.12l3.3,2V36.33H39.74v6.82l3.3-2A.88.88,0,0,1,43.48,41Z"/><path class="cls-2" d="M52.54,52.37H43a.84.84,0,1,1,0-1.67h9.53a.84.84,0,1,1,0,1.67Z"/><path class="cls-2" d="M52.54,57.25H43a.84.84,0,0,1,0-1.68h9.53a.84.84,0,0,1,0,1.68Z"/><path class="cls-2" d="M52.54,62.12H43a.84.84,0,1,1,0-1.67h9.53a.84.84,0,1,1,0,1.67Z"/></g><g id="HOSTING"><text class="cls-3" transform="translate(17.93 -4.98)">SSL En<tspan class="cls-4" x="32.6" y="0">f</tspan><tspan x="35.95" y="0">o</tspan><tspan class="cls-5" x="42.54" y="0">r</tspan><tspan class="cls-6" x="46.34" y="0">c</tspan><tspan x="51.65" y="0">eme</tspan><tspan class="cls-7" x="73.68" y="0">n</tspan><tspan class="cls-8" x="80.29" y="0">t</tspan></text><text class="cls-3" transform="translate(-124.83 -4.98)"><tspan class="cls-9">R</tspan><tspan x="6.5" y="0">ol</tspan><tspan class="cls-10" x="15.92" y="0">e</tspan><tspan x="22.27" y="0">-Based </tspan><tspan class="cls-11" x="58.32" y="0">A</tspan><tspan class="cls-6" x="65.52" y="0">cc</tspan><tspan x="76.13" y="0">ess </tspan><tspan class="cls-12" x="94.19" y="0">C</tspan><tspan x="101.02" y="0">o</tspan><tspan class="cls-7" x="107.6" y="0">n</tspan><tspan x="114.21" y="0">t</tspan><tspan class="cls-13" x="118.19" y="0">r</tspan><tspan x="121.99" y="0">ol</tspan></text></g></svg>